<svg viewBox="0 0 60 60" xmlns="http://www.w3.org/2000/svg">
  <defs>
    <!-- Gradient for the forge flame -->
    <linearGradient id="flameGradient" x1="0%" y1="0%" x2="100%" y2="100%">
      <stop offset="0%" style="stop-color:#ff6b35;stop-opacity:1" />
      <stop offset="50%" style="stop-color:#f7931e;stop-opacity:1" />
      <stop offset="100%" style="stop-color:#ffd23f;stop-opacity:1" />
    </linearGradient>
    
    <!-- Gradient for the presentation icon -->
    <linearGradient id="presentationGradient" x1="0%" y1="0%" x2="100%" y2="100%">
      <stop offset="0%" style="stop-color:#667eea;stop-opacity:1" />
      <stop offset="100%" style="stop-color:#764ba2;stop-opacity:1" />
    </linearGradient>
    
    <!-- Drop shadow filter -->
    <filter id="dropShadow" x="-20%" y="-20%" width="140%" height="140%">
      <feDropShadow dx="2" dy="2" stdDeviation="3" flood-opacity="0.3"/>
    </filter>
  </defs>
  
  <!-- Background circle for the icon -->
  <circle cx="30" cy="30" r="25" fill="url(#presentationGradient)" filter="url(#dropShadow)"/>
  
  <!-- Presentation screen/monitor -->
  <rect x="20" y="22" width="20" height="12" rx="2" fill="white" opacity="0.9"/>
  <rect x="22" y="24" width="16" height="8" rx="1" fill="url(#presentationGradient)"/>
  
  <!-- Presentation stand -->
  <rect x="29" y="34" width="2" height="6" fill="white" opacity="0.8"/>
  <rect x="25" y="39" width="10" height="2" rx="1" fill="white" opacity="0.8"/>
  
  <!-- Chart bars inside presentation -->
  <rect x="24" y="28" width="2" height="4" fill="white" opacity="0.7"/>
  <rect x="27" y="26" width="2" height="6" fill="white" opacity="0.7"/>
  <rect x="30" y="27" width="2" height="5" fill="white" opacity="0.7"/>
  <rect x="33" y="25" width="2" height="7" fill="white" opacity="0.7"/>
  
  <!-- Forge flame/spark effect -->
  <path d="M42 18 C45 15, 48 20, 45 25 C47 22, 50 25, 47 30 C44 28, 42 25, 42 18 Z" 
        fill="url(#flameGradient)" opacity="0.8"/>
  <circle cx="44" cy="32" r="1.5" fill="#ffd23f" opacity="0.6"/>
  <circle cx="47" cy="28" r="1" fill="#ff6b35" opacity="0.7"/>
  <circle cx="41" cy="30" r="0.8" fill="#f7931e" opacity="0.5"/>
  

</svg>